<svg xmlns="http://www.w3.org/2000/svg" version="1.1" xmlns:xlink="http://www.w3.org/1999/xlink" xmlns:svgjs="http://svgjs.dev/svgjs" width="1440" height="560" preserveAspectRatio="none" viewBox="0 0 1440 560"><g mask="url(&quot;#SvgjsMask1040&quot;)" fill="none"><path d="M420 70C385.34 78.12 373.33 108.49 373.33 140C373.33 162.58 396.96 158.73 420 178.18C479.87 228.73 482.77 226.27 539.15 280C552.77 292.98 547.56 311.61 560 311.61C575.49 311.61 592.81 301.5 595 280C601.56 215.69 590.62 208.87 577.5 140C573.12 117 579.58 104.95 560 96.25C500.83 69.95 478.68 56.25 420 70" stroke="rgba(249, 115, 22, 1)" stroke-width="2"></path><path d="M742 0C784.85 55.09 769.08 75.93 808.89 140C818.08 154.79 823.81 157.72 840 157.72C861.94 157.72 875.62 159.95 885.16 140C913.31 81.09 882.7 48.24 915.38 0C930.12 -21.76 947.69 0 980 0C1050 0 1050 0 1120 0C1155.72 0 1172.36 -22.88 1191.43 0C1230.7 47.12 1226.58 68.29 1236.67 140C1246.28 208.29 1222.25 213.4 1230.83 280C1233.92 303.99 1244.91 321.18 1260 321.18C1275.65 321.18 1289.09 304.62 1292.31 280C1300.95 214.03 1258.33 197.92 1283.73 140C1312.17 75.15 1341.17 86.42 1400 34.46C1420.43 16.42 1417.19 6.17 1442.26 0C1487.19 -11.06 1519.91 -28.78 1540 0C1568.78 41.22 1540 70 1540 140C1540 210 1540 210 1540 280C1540 294.74 1544.12 295.48 1540 309.47C1523.53 365.48 1498.82 364.19 1498.82 420C1498.82 485.08 1520.64 485.44 1540 551.25C1541.23 555.44 1544.12 559.74 1540 560C1474.12 564.12 1470 560 1400 560C1330 560 1330 560 1260 560C1190 560 1190 560 1120 560C1073.03 560 1026.05 582.53 1026.05 560C1026.05 524.01 1070.4 498.77 1120 442.95C1132.59 428.77 1150.43 431.14 1150.43 420C1150.43 409.21 1137.78 401.59 1120 399.1C1052.56 389.64 1049.92 399.33 980 396.1C909.92 392.86 905.81 377.54 840 386.15C814.42 389.49 805.53 395.75 797.22 420C775.74 482.68 811.38 515.43 780.43 560C762.77 585.43 740.21 560 700 560C632.5 560 631.31 562.65 565 560C561.31 559.85 562.48 554.4 560 554.4C557.56 554.4 558.8 559.85 555.17 560C488.8 562.65 487.59 560 420 560C350 560 350 560 280 560C210 560 210 560 140 560C70 560 35 595 0 560C-35 525 0 490 0 420C0 350 0 350 0 280C0 210 0 210 0 140C0 70 -35 35 0 0C35 -35 70 0 140 0C210 0 210 0 280 0C350 0 350 0 420 0C490 0 490 0 560 0C630 0 630 0 700 0C721 0 730.4 -14.91 742 0" stroke="rgba(249, 115, 22, 1)" stroke-width="2"></path><path d="M0 26.55C3.74 8.52 10.73 3.48 29.06 0C80.73 -9.8 84.53 0 140 0C210 0 210 0 280 0C319.57 0 356.49 -23.78 359.13 0C364.27 46.22 280.68 80.9 295.56 140C311.12 201.81 358.07 190.56 420 241.82C442.63 260.56 448.49 255.95 464.68 280C508.49 345.04 547.18 353.42 540 420C532.08 493.42 489.9 495.34 434.48 560C429.9 565.34 427.24 560 420 560C350 560 350 560 280 560C210 560 210 560 140 560C70 560 35 595 0 560C-35 525 0 490 0 420C0 350 0 350 0 280C0 210 0 210 0 140C0 83.28 -10.79 78.52 0 26.55" stroke="rgba(249, 115, 22, 1)" stroke-width="2"></path><path d="M140 108.89C121.59 108.89 120.47 121.19 111.53 140C79.82 206.74 49.97 222.45 58.71 280C64.21 316.22 100.89 327.55 140 327.55C172.27 327.55 184.21 312.73 201.46 280C233.62 218.96 256.74 189.89 238.82 140C226.01 104.33 185.23 108.89 140 108.89" stroke="rgba(249, 115, 22, 1)" stroke-width="2"></path><path d="M665 140C665 115.14 683.12 96.25 700 96.25C716.17 96.25 710.12 124.14 731.11 140C780.12 177.03 783.09 199.31 840 202.03C907.53 205.26 910.89 178.82 980 151.91C990.54 147.8 991.66 148.3 999.31 140C1061.66 72.35 1070.83 0 1120 0C1160.34 0 1162.16 67.21 1178.33 140C1193.27 207.21 1199.87 217.39 1182.22 280C1170.71 320.83 1159.89 332.39 1120 346.87C1058.78 369.09 1050.01 353.2 980 353.41C910.01 353.61 903.16 329.51 840 347.69C787.47 362.81 778.32 372.94 748.61 420C711.3 479.1 729.31 492.74 705.96 560C705.01 562.74 702.98 560 700 560C695 560 693.41 563.55 690 560C626.1 493.55 562.83 486.35 565.38 420C567.83 356 634.97 361.54 700 299.31C708.12 291.54 711.67 290.42 711.67 280C711.67 260.76 706.59 259.76 700 240C683.25 189.76 665 187.01 665 140" stroke="rgba(249, 115, 22, 1)" stroke-width="2"></path><path d="M1343.05 140C1352.6 106.02 1367.22 88.31 1400 88.31C1455.69 88.31 1502.08 94.85 1520 140C1540.12 190.7 1498.49 210.14 1476.09 280C1453.59 350.14 1452.24 349.72 1430.2 420C1414.19 471.05 1436.71 504.21 1400 522.67C1351.61 546.99 1312.52 536.65 1260 505.56C1225.78 485.31 1226.52 458.83 1226.52 420C1226.52 400.95 1245.39 406.89 1260 389.8C1305.21 336.89 1325.42 342.34 1346.15 280C1366.95 217.44 1325.67 201.87 1343.05 140" stroke="rgba(249, 115, 22, 1)" stroke-width="2"></path><path d="M1540 105C1531.9 105 1508.3 40.73 1508.3 0C1508.3 -11.77 1536.32 -12.17 1540 0C1552.17 40.33 1547.75 105 1540 105" stroke="rgba(249, 115, 22, 1)" stroke-width="2"></path><path d="M1072.11 560C1072.11 541.65 1090.03 500.33 1120 500.33C1169.12 500.33 1230.3 544.13 1230.3 560C1230.3 573.96 1175.15 560 1120 560C1096.05 560 1072.11 571.49 1072.11 560" stroke="rgba(249, 115, 22, 1)" stroke-width="2"></path><path d="M0 86.9C15.24 86.9 52.2 110.12 52.2 140C52.2 181.96 13.98 230.59 0 230.59C-12.12 230.59 0 185.3 0 140C0 113.45 -10.86 86.9 0 86.9" stroke="rgba(249, 115, 22, 1)" stroke-width="2"></path><path d="M140 44.07C114.4 44.07 95.09 12.86 95.09 0C95.09 -9.18 117.55 0 140 0C181.03 0 222.07 -10.32 222.07 0C222.07 11.71 177.89 44.07 140 44.07" stroke="rgba(249, 115, 22, 1)" stroke-width="2"></path><path d="M784.58 280C784.58 264 809.28 254.76 840 246.33C906.99 227.95 915.28 250.96 980 226.38C1055.28 197.79 1078.6 125.55 1120 140C1155.4 152.36 1133.61 212.3 1133.61 280C1133.61 289.62 1129.54 292.72 1120 294.63C1052.73 308.09 1050.23 307.07 980 310.73C910.23 314.37 907.5 319.84 840 309.23C809.79 304.48 784.58 295.45 784.58 280" stroke="rgba(249, 115, 22, 1)" stroke-width="2"></path><path d="M0 400C61.26 388.44 74.23 412.37 140 393.58C214.23 372.37 229 312.04 280 320C313.59 325.25 298.16 369.19 309.17 420C324.16 489.19 342.67 508.78 332 560C328.09 578.78 306 560 280 560C210 560 210 560 140 560C76.67 560 58.13 582.4 13.33 560C-11.87 547.4 3.36 525.31 0 490C-3.3 455.31 0 455 0 420C0 410 -8.74 401.65 0 400" stroke="rgba(249, 115, 22, 1)" stroke-width="2"></path><path d="M1118.16 560C1118.16 559.29 1118.85 557.7 1120 557.7C1121.89 557.7 1124.24 559.39 1124.24 560C1124.24 560.54 1122.12 560 1120 560C1119.08 560 1118.16 560.44 1118.16 560" stroke="rgba(249, 115, 22, 1)" stroke-width="2"></path></g><defs><mask id="SvgjsMask1040"><rect width="1440" height="560" fill="#ffffff"></rect></mask></defs></svg>